<svg width="24" height="24" viewBox="0 0 24 24" fill="none" xmlns="http://www.w3.org/2000/svg">
<path fill-rule="evenodd" clip-rule="evenodd" d="M8.36106 1.1001L8.40001 1.1001H15.6L15.639 1.1001C16.726 1.10009 17.5967 1.10008 18.3005 1.15758C19.0232 1.21663 19.6487 1.34076 20.2246 1.63417C21.1466 2.10395 21.8962 2.85355 22.3659 3.77554C22.6593 4.35139 22.7835 4.97695 22.8425 5.69962C22.9 6.40339 22.9 7.27407 22.9 8.36115V8.4001V14.0001C22.9 14.2388 22.8052 14.4677 22.6364 14.6365L14.6364 22.6365C14.4676 22.8053 14.2387 22.9001 14 22.9001H8.40001H8.36105C7.27398 22.9001 6.4033 22.9001 5.69953 22.8426C4.97686 22.7836 4.3513 22.6594 3.77545 22.366C2.85346 21.8962 2.10385 21.1466 1.63407 20.2247C1.34067 19.6488 1.21654 19.0232 1.15749 18.3006C1.09999 17.5968 1.1 16.7261 1.10001 15.639L1.10001 15.6001V8.4001L1.10001 8.36115C1.1 7.27407 1.09999 6.40339 1.15749 5.69962C1.21654 4.97695 1.34067 4.35139 1.63407 3.77554C2.10385 2.85355 2.85346 2.10395 3.77545 1.63417C4.3513 1.34076 4.97686 1.21663 5.69953 1.15758C6.4033 1.10008 7.27398 1.10009 8.36106 1.1001ZM5.8461 2.95161C5.23475 3.00156 4.87244 3.09541 4.59264 3.23798C4.00933 3.53519 3.53509 4.00942 3.23789 4.59273C3.09532 4.87253 3.00146 5.23484 2.95151 5.84619C2.90071 6.46805 2.90001 7.26514 2.90001 8.4001V15.6001C2.90001 16.7351 2.90071 17.5321 2.95151 18.154C3.00146 18.7654 3.09532 19.1277 3.23789 19.4075C3.53509 19.9908 4.00933 20.465 4.59264 20.7622C4.87244 20.9048 5.23475 20.9986 5.8461 21.0486C6.46796 21.0994 7.26505 21.1001 8.40001 21.1001H13.1V17.2001V17.1647C13.1 16.6348 13.1 16.1836 13.1302 15.8132C13.162 15.4241 13.2317 15.0455 13.4161 14.6835C13.6941 14.1379 14.1378 13.6942 14.6834 13.4162C15.0454 13.2318 15.424 13.1621 15.8131 13.1303C16.1836 13.1001 16.6347 13.1001 17.1646 13.1001H17.2H21.1V8.4001C21.1 7.26514 21.0993 6.46805 21.0485 5.84619C20.9985 5.23484 20.9047 4.87253 20.7621 4.59273C20.4649 4.00942 19.9907 3.53519 19.4074 3.23798C19.1276 3.09541 18.7653 3.00156 18.1539 2.95161C17.5321 2.9008 16.735 2.9001 15.6 2.9001H8.40001C7.26505 2.9001 6.46796 2.9008 5.8461 2.95161ZM19.8272 14.9001H17.2C16.6251 14.9001 16.2481 14.9008 15.9597 14.9244C15.6819 14.9471 15.5665 14.9864 15.5006 15.02C15.2936 15.1255 15.1254 15.2937 15.0199 15.5007C14.9863 15.5666 14.947 15.6819 14.9243 15.9598C14.9007 16.2481 14.9 16.6252 14.9 17.2001V19.8273L19.8272 14.9001Z" fill=" #fdda54"/>
</svg>