<svg width="24" height="24" viewBox="0 0 24 24" fill="none" xmlns="http://www.w3.org/2000/svg">
<path fill-rule="evenodd" clip-rule="evenodd" d="M10.4 6.2H7.03931C6.19204 5.8295 5.6 4.98389 5.6 4C5.6 2.67452 6.67451 1.6 8 1.6C9.32548 1.6 10.4 2.67452 10.4 4V6.2ZM16.9607 6.2H13.6V4C13.6 2.67452 14.6745 1.6 16 1.6C17.3255 1.6 18.4 2.67452 18.4 4C18.4 4.98389 17.808 5.8295 16.9607 6.2ZM19.3412 6.2C19.7576 5.56884 20 4.81273 20 4C20 1.79086 18.2091 0 16 0C13.7909 0 12 1.79086 12 4C12 1.79086 10.2091 0 8 0C5.79086 0 4 1.79086 4 4C4 4.81273 4.24238 5.56884 4.65881 6.2H4H3.97334H3.97332C3.53007 6.19999 3.15756 6.19999 2.85123 6.22089C2.53158 6.2427 2.22598 6.28991 1.92848 6.41314C1.24241 6.69732 0.697319 7.24241 0.413136 7.92849C0.289908 8.22598 0.242693 8.53159 0.220884 8.85123C0.199983 9.15756 0.19999 9.53007 0.199997 9.9733V9.97332V9.97334V10V10.0267V10.0267V10.0267C0.19999 10.4699 0.199983 10.8424 0.220884 11.1488C0.242693 11.4684 0.289908 11.774 0.413136 12.0715C0.697319 12.7576 1.24241 13.3027 1.92848 13.5869C2.0182 13.624 2.10865 13.6543 2.2 13.679V15L2.2 15.0598C2.19998 16.8947 2.19997 18.3531 2.35358 19.4957C2.51195 20.6737 2.84668 21.6349 3.60589 22.3941C4.36509 23.1533 5.32635 23.488 6.50431 23.6464C7.64688 23.8 9.10533 23.8 10.9402 23.8H11H13H13.0598C14.8947 23.8 16.3531 23.8 17.4957 23.6464C18.6736 23.488 19.6349 23.1533 20.3941 22.3941C21.1533 21.6349 21.488 20.6737 21.6464 19.4957C21.8 18.3531 21.8 16.8947 21.8 15.0599V15V13.679C21.8913 13.6543 21.9818 13.624 22.0715 13.5869C22.7576 13.3027 23.3027 12.7576 23.5869 12.0715C23.7101 11.774 23.7573 11.4684 23.7791 11.1488C23.8 10.8425 23.8 10.47 23.8 10.0268V10.0268V10V9.97325V9.97317C23.8 9.52999 23.8 9.15753 23.7791 8.85123C23.7573 8.53159 23.7101 8.22598 23.5869 7.92849C23.3027 7.24241 22.7576 6.69732 22.0715 6.41314C21.774 6.28991 21.4684 6.2427 21.1488 6.22089C20.8424 6.19999 20.4699 6.19999 20.0267 6.2H20.0267H20H19.3412ZM12.8 8H13.6H16C16.4374 8 16.8585 7.92978 17.2525 7.8H20C20.4769 7.8 20.7945 7.80043 21.0399 7.81717C21.278 7.83343 21.3892 7.86233 21.4592 7.89135C21.7533 8.01314 21.9869 8.24675 22.1087 8.54078C22.1377 8.61083 22.1666 8.72196 22.1828 8.96015C22.1996 9.20551 22.2 9.52311 22.2 10C22.2 10.4769 22.1996 10.7945 22.1828 11.0399C22.1666 11.278 22.1377 11.3892 22.1087 11.4592C21.9869 11.7533 21.7533 11.9869 21.4592 12.1087C21.3892 12.1377 21.278 12.1666 21.0399 12.1828C20.7945 12.1996 20.4769 12.2 20 12.2H12.8V8ZM8 8C7.56256 8 7.14152 7.92978 6.74753 7.8H4C3.52311 7.8 3.20551 7.80043 2.96014 7.81717C2.72196 7.83343 2.61082 7.86233 2.54078 7.89135C2.24674 8.01314 2.01314 8.24675 1.89134 8.54078C1.86233 8.61083 1.83342 8.72196 1.81717 8.96015C1.80043 9.20551 1.8 9.52311 1.8 10C1.8 10.4769 1.80043 10.7945 1.81717 11.0399C1.83342 11.278 1.86233 11.3892 1.89134 11.4592C2.01314 11.7533 2.24674 11.9869 2.54078 12.1087C2.61082 12.1377 2.72196 12.1666 2.96014 12.1828C3.20551 12.1996 3.52311 12.2 4 12.2H11.2V8H10.4H8ZM20.0266 13.8H20.0729H20.2V15C20.2 16.9082 20.1983 18.2589 20.0607 19.2825C19.9262 20.283 19.6751 20.8504 19.2627 21.2627C18.8504 21.6751 18.283 21.9262 17.2825 22.0607C16.2589 22.1983 14.9082 22.2 13 22.2H12.8V13.8H20H20.0266ZM11.2 13.8V22.2H11C9.09176 22.2 7.74107 22.1983 6.71751 22.0607C5.71696 21.9262 5.14963 21.6751 4.73726 21.2627C4.32489 20.8504 4.07383 20.283 3.93931 19.2825C3.8017 18.2589 3.8 16.9082 3.8 15V13.8H3.92709H3.97336H4H11.2Z" fill=" #fdda54"/>
</svg>