<svg width="24" height="24" viewBox="0 0 24 24" fill="none" xmlns="http://www.w3.org/2000/svg">
<path fill-rule="evenodd" clip-rule="evenodd" d="M16.9673 6.1001H2.03266C2.41831 4.82693 3.60092 3.9001 5 3.9001H14C15.3991 3.9001 16.5817 4.82693 16.9673 6.1001ZM14 2.1001C16.3998 2.1001 18.3966 3.82522 18.8181 6.10298C19.2745 6.10941 19.6322 6.12985 19.9559 6.19425C21.8997 6.58089 23.4192 8.10037 23.8058 10.0442C23.9003 10.519 23.9002 11.0667 23.9 11.892L23.9 12.0001V14.6001V14.639V14.6391C23.9 15.7262 23.9 16.5968 23.8425 17.3006C23.7835 18.0232 23.6593 18.6488 23.3659 19.2247C22.8962 20.1466 22.1465 20.8962 21.2246 21.366C20.6487 21.6594 20.0231 21.7836 19.3005 21.8426C18.5967 21.9001 17.7261 21.9001 16.639 21.9001H16.639H16.6H7.4H7.36105H7.36096C6.27393 21.9001 5.40327 21.9001 4.69952 21.8426C3.97685 21.7836 3.35129 21.6594 2.77545 21.366C1.85345 20.8962 1.10385 20.1466 0.634068 19.2247C0.340661 18.6488 0.21653 18.0232 0.157486 17.3006C0.0999854 16.5968 0.0999917 15.7261 0.0999996 14.6391V14.639V14.6001V7.0001C0.0999996 4.2939 2.2938 2.1001 5 2.1001H14ZM1.9 14.6001V7.9001H18C18.9724 7.9001 19.3272 7.90446 19.6048 7.95966C20.8345 8.20427 21.7958 9.16558 22.0404 10.3953C22.0956 10.6729 22.1 11.0276 22.1 12.0001V14.6001C22.1 15.7351 22.0993 16.5321 22.0485 17.154C21.9985 17.7654 21.9047 18.1277 21.7621 18.4075C21.4649 18.9908 20.9907 19.465 20.4074 19.7622C20.1276 19.9048 19.7653 19.9986 19.1539 20.0486C18.532 20.0994 17.735 20.1001 16.6 20.1001H7.4C6.26504 20.1001 5.46795 20.0994 4.8461 20.0486C4.23475 19.9986 3.87243 19.9048 3.59263 19.7622C3.00933 19.465 2.53509 18.9908 2.23788 18.4075C2.09531 18.1277 2.00146 17.7654 1.95151 17.154C1.9007 16.5321 1.9 15.7351 1.9 14.6001ZM16 13.1001C15.5029 13.1001 15.1 13.503 15.1 14.0001C15.1 14.4972 15.5029 14.9001 16 14.9001H18C18.4971 14.9001 18.9 14.4972 18.9 14.0001C18.9 13.503 18.4971 13.1001 18 13.1001H16Z" fill=" #fdda54"/>
</svg>