<svg width="24" height="24" viewBox="0 0 24 24" fill="none" xmlns="http://www.w3.org/2000/svg">
<g clip-path="url(#clip0)">
<path fill-rule="evenodd" clip-rule="evenodd" d="M12 2.45421e-07H11.9375C9.64489 -1.32252e-05 7.83927 -2.35964e-05 6.40845 0.16128C4.9445 0.326319 3.74969 0.670746 2.73867 1.44653C2.25335 1.81893 1.81893 2.25335 1.44653 2.73867C0.670746 3.74969 0.326319 4.9445 0.16128 6.40845C-2.35964e-05 7.83927 -1.32252e-05 9.64489 2.45421e-07 11.9375V12V12.0625C-1.32252e-05 14.3551 -2.35964e-05 16.1607 0.16128 17.5916C0.326319 19.0555 0.670746 20.2503 1.44653 21.2613C1.81893 21.7467 2.25335 22.1811 2.73867 22.5535C3.74969 23.3293 4.9445 23.6737 6.40845 23.8387C7.83925 24 9.64486 24 11.9374 24H11.9375H12H12.0625H12.0626C14.3551 24 16.1607 24 17.5916 23.8387C19.0555 23.6737 20.2503 23.3293 21.2613 22.5535C21.7467 22.1811 22.1811 21.7467 22.5535 21.2613C23.3293 20.2503 23.6737 19.0555 23.8387 17.5916C24 16.1607 24 14.3551 24 12.0626V12.0625V12V11.9375V11.9374C24 9.64486 24 7.83925 23.8387 6.40845C23.6737 4.9445 23.3293 3.74969 22.5535 2.73867C22.1811 2.25335 21.7467 1.81893 21.2613 1.44653C20.2503 0.670746 19.0555 0.326319 17.5916 0.16128C16.1607 -2.35964e-05 14.3551 -1.32252e-05 12.0625 2.45421e-07H12ZM3.95619 3.03323C4.56102 2.56913 5.34691 2.29362 6.6325 2.14869C7.93824 2.00149 9.63117 2 12 2C14.3688 2 16.0618 2.00149 17.3675 2.14869C18.6531 2.29362 19.439 2.56913 20.0438 3.03323C20.3905 3.29924 20.7008 3.60953 20.9668 3.95619C21.4309 4.56102 21.7064 5.34691 21.8513 6.6325C21.9985 7.93824 22 9.63117 22 12C22 14.3688 21.9985 16.0618 21.8513 17.3675C21.7064 18.6531 21.4309 19.439 20.9668 20.0438C20.7008 20.3905 20.3905 20.7008 20.0438 20.9668C19.439 21.4309 18.6531 21.7064 17.3675 21.8513C16.0618 21.9985 14.3688 22 12 22C9.63117 22 7.93824 21.9985 6.6325 21.8513C5.34691 21.7064 4.56102 21.4309 3.95619 20.9668C3.60953 20.7008 3.29924 20.3905 3.03323 20.0438C2.56913 19.439 2.29362 18.6531 2.14869 17.3675C2.00149 16.0618 2 14.3688 2 12C2 9.63117 2.00149 7.93824 2.14869 6.6325C2.29362 5.34691 2.56913 4.56102 3.03323 3.95619C3.29924 3.60953 3.60953 3.29924 3.95619 3.03323ZM11 7C11 6.44772 11.4477 6 12 6C12.5523 6 13 6.44772 13 7V13C13 13.5523 12.5523 14 12 14C11.4477 14 11 13.5523 11 13V7ZM11 17C11 16.4477 11.4477 16 12 16C12.5523 16 13 16.4477 13 17C13 17.5523 12.5523 18 12 18C11.4477 18 11 17.5523 11 17Z" fill="#fdda54"/>
</g>
<defs>
<clipPath id="clip0">
<rect width="24" height="24" fill="#fdda54"/>
</clipPath>
</defs>
</svg>