<svg width="24" height="24" viewBox="0 0 24 24" fill="none" xmlns="http://www.w3.org/2000/svg">
<g clip-path="url(#clip0)">
<path fill-rule="evenodd" clip-rule="evenodd" d="M19.8 2C20.3766 2 20.7488 2.00078 21.0322 2.02393C21.3038 2.04612 21.4045 2.0838 21.454 2.10899C21.6422 2.20487 21.7951 2.35785 21.891 2.54601C21.9162 2.59545 21.9539 2.69617 21.9761 2.96784C21.9992 3.25117 22 3.62345 22 4.2V14C22 14.4796 21.9995 14.7893 21.9833 15.0262C21.9677 15.2542 21.9411 15.3411 21.9239 15.3827C21.8224 15.6277 21.6277 15.8224 21.3827 15.9239C21.3411 15.9411 21.2542 15.9677 21.0262 15.9833C20.7893 15.9995 20.4796 16 20 16V18H20.032C20.4706 18 20.8491 18 21.1624 17.9787C21.4922 17.9561 21.8221 17.9066 22.1481 17.7716C22.8831 17.4672 23.4672 16.8831 23.7716 16.1481C23.9066 15.8221 23.9561 15.4922 23.9787 15.1624C24 14.8491 24 14.4706 24 14.032V14V4.2V4.16143C24 3.63429 24 3.17954 23.9694 2.80497C23.9371 2.40963 23.8658 2.01641 23.673 1.63803C23.3854 1.07354 22.9265 0.614601 22.362 0.326981C21.9836 0.134187 21.5904 0.0628714 21.195 0.0305704C20.8205 -3.34041e-05 20.3657 -1.79069e-05 19.8385 9.28211e-07H19.8H10H9.96803C9.52938 -1.20656e-05 9.15088 -2.29136e-05 8.83762 0.0213513C8.50778 0.0438559 8.17787 0.0933612 7.85193 0.228369C7.11686 0.532851 6.53285 1.11686 6.22837 1.85193C6.09336 2.17787 6.04386 2.50778 6.02135 2.83762C5.99998 3.15087 5.99999 3.52935 6 3.96799V3.96803L6 4.00002H8C8 3.52039 8.00054 3.21074 8.01671 2.97376C8.03227 2.74576 8.05889 2.65893 8.07612 2.61731C8.17762 2.37229 8.37229 2.17762 8.61731 2.07612C8.65893 2.05889 8.74576 2.03227 8.97376 2.01671C9.21074 2.00054 9.52038 2 10 2H19.8ZM4.2 6.00002L4.16146 6.00002C3.63431 6 3.17955 5.99998 2.80497 6.03059C2.40963 6.06289 2.01641 6.1342 1.63803 6.327C1.07354 6.61462 0.614601 7.07356 0.326981 7.63804C0.134187 8.01642 0.0628714 8.40964 0.0305704 8.80499C-3.34041e-05 9.17956 -1.79069e-05 9.63432 9.28211e-07 10.1615V10.2V19.8V19.8386C-1.79069e-05 20.3657 -3.34041e-05 20.8205 0.0305704 21.195C0.0628714 21.5904 0.134187 21.9836 0.326981 22.362C0.614601 22.9265 1.07354 23.3854 1.63803 23.673C2.01641 23.8658 2.40963 23.9371 2.80497 23.9694C3.17954 24 3.6343 24 4.16143 24H4.2H13.8H13.8386C14.3657 24 14.8205 24 15.195 23.9694C15.5904 23.9371 15.9836 23.8658 16.362 23.673C16.9265 23.3854 17.3854 22.9265 17.673 22.362C17.8658 21.9836 17.9371 21.5904 17.9694 21.195C18 20.8205 18 20.3657 18 19.8386V19.8V10.2V10.1614C18 9.63431 18 9.17955 17.9694 8.80499C17.9371 8.40964 17.8658 8.01642 17.673 7.63804C17.3854 7.07356 16.9265 6.61462 16.362 6.327C15.9836 6.1342 15.5904 6.06289 15.195 6.03059C14.8205 5.99998 14.3657 6 13.8385 6.00002L13.8 6.00002H4.2ZM2.54601 8.10901C2.59545 8.08382 2.69617 8.04614 2.96784 8.02394C3.25117 8.00079 3.62345 8.00002 4.2 8.00002H13.8C14.3766 8.00002 14.7488 8.00079 15.0322 8.02394C15.3038 8.04614 15.4045 8.08382 15.454 8.10901C15.6422 8.20488 15.7951 8.35786 15.891 8.54603C15.9162 8.59547 15.9539 8.69619 15.9761 8.96785C15.9992 9.25119 16 9.62346 16 10.2V19.8C16 20.3766 15.9992 20.7488 15.9761 21.0322C15.9539 21.3038 15.9162 21.4046 15.891 21.454C15.7951 21.6422 15.6422 21.7951 15.454 21.891C15.4045 21.9162 15.3038 21.9539 15.0322 21.9761C14.7488 21.9992 14.3766 22 13.8 22H4.2C3.62345 22 3.25117 21.9992 2.96784 21.9761C2.69617 21.9539 2.59545 21.9162 2.54601 21.891C2.35785 21.7951 2.20487 21.6422 2.10899 21.454C2.0838 21.4046 2.04612 21.3038 2.02393 21.0322C2.00078 20.7488 2 20.3766 2 19.8V10.2C2 9.62346 2.00078 9.25119 2.02393 8.96785C2.04612 8.69619 2.0838 8.59547 2.10899 8.54603C2.20487 8.35786 2.35785 8.20488 2.54601 8.10901Z" fill="white"/>
</g>
<defs>
<clipPath id="clip0">
<rect width="24" height="24" fill="fdda54"/>
</clipPath>
</defs>
</svg>