<svg width="32" height="32" viewBox="0 0 32 32" fill="none" xmlns="http://www.w3.org/2000/svg">
<path fill-rule="evenodd" clip-rule="evenodd" d="M16 28H12V31C12 31.552 12.447 32 13 32H14V30H16V32H18V26H16V28ZM0 16V18H2V16H0ZM2 20H6V18H2V20ZM1 12C0.447 12 0 12.447 0 13V14H2V12H1ZM12 16V20H14V16H12ZM28 20H30V18H28V20ZM1 10H9C9.552 10 10 9.552 10 9V1C10 0.447 9.552 0 9 0H1C0.447 0 0 0.447 0 1V9C0 9.552 0.447 10 1 10ZM2 2H8V8H2V2ZM6 26H4V28H6V26ZM4 6H6V4H4V6ZM31 22H23C22.447 22 22 22.447 22 23V31C22 31.552 22.447 32 23 32H31C31.552 32 32 31.552 32 31V23C32 22.447 31.552 22 31 22ZM30 30H24V24H30V30ZM32 18V16H30V18H32ZM28 26H26V28H28V26ZM9 22H1C0.447 22 0 22.447 0 23V31C0 31.552 0.447 32 1 32H9C9.552 32 10 31.552 10 31V23C10 22.447 9.552 22 9 22ZM8 30H2V24H8V30ZM14 24V22H12V26H16V24H14ZM26 12H24V14H26V12ZM16 14H14V16H16V14ZM18 14V16H20V18H18V16H16V20H14V22H16V24H18V26H20V22H18V20H22V16H24V14H18ZM16 8H14V10H16V8ZM18 14V12H20V10H16V14H18ZM31 0H23C22.447 0 22 0.447 22 1V9C22 9.552 22.447 10 23 10H31C31.552 10 32 9.552 32 9V1C32 0.447 31.552 0 31 0ZM30 8H24V2H30V8ZM28 4H26V6H28V4ZM31 12H28V14H26V16H24V18H28V16H30V14H32V13C32 12.447 31.552 12 31 12ZM12 4V8H14V4H12ZM6 14H8V12H4V14H2V16H6V14ZM12 10V12H10V14H14V10H12ZM8 16H6V18H8V20H10V14H8V16ZM18 8V6H20V4H16V8H18ZM16 2H14V4H16V2ZM13 0C12.447 0 12 0.447 12 1V2H14V0H13ZM20 1C20 0.447 19.552 0 19 0H16V2H20V1Z" fill="white"/>
</svg>