<svg width="28" height="32" viewBox="0 0 28 32" fill="none" xmlns="http://www.w3.org/2000/svg">
<g clip-path="url(#clip0)">
<path fill-rule="evenodd" clip-rule="evenodd" d="M18.993 4.93298C18.993 4.95598 19 4.97698 19 4.99998C19 5.68198 18.861 6.32998 18.614 6.92198C22.951 8.73098 26 13.008 26 18C26 24.627 20.627 30 14 30C7.373 30 2 24.627 2 18C2 16.339 2.344 14.76 2.954 13.321C2.521 12.542 2.155 11.769 1.871 11.024C0.685 13.077 0 15.457 0 18C0 25.731 6.268 32 14 32C21.732 32 28 25.731 28 18C28 12.029 24.256 6.94598 18.993 4.93298Z" fill="white"/>
<path d="M15.412 16.663C14.653 15.903 3.80002 6.28101 3.04102 7.04101C2.28202 7.80001 11.904 18.652 12.663 19.412C13.422 20.171 14.653 20.171 15.412 19.412C16.171 18.652 16.171 17.422 15.412 16.663Z" fill="#48A0DC"/>
<path d="M14 7C15.1046 7 16 6.10457 16 5C16 3.89543 15.1046 3 14 3C12.8954 3 12 3.89543 12 5C12 6.10457 12.8954 7 14 7Z" fill="white"/>
</g>
<defs>
<clipPath id="clip0">
<rect width="28" height="32" fill="white"/>
</clipPath>
</defs>
</svg>