<svg width="24" height="28" viewBox="0 0 24 28" fill="none" xmlns="http://www.w3.org/2000/svg">
<path fill-rule="evenodd" clip-rule="evenodd" d="M12 0C10.35 2.042 7.829 3.35 5 3.35C3.149 3.35 1.43 2.789 0 1.832V15.384C0 20.92 7.984 27.348 11.925 27.348C16.125 27.348 24 20.92 24 15.384V1.832C22.57 2.789 20.851 3.35 19 3.35C16.171 3.35 13.65 2.042 12 0Z" fill="#88C057"/>
<path fill-rule="evenodd" clip-rule="evenodd" d="M17.5639 9.80103C16.9979 9.16903 16.0799 9.16903 15.5139 9.80103L10.2759 15.439L8.45593 13.406C7.87693 12.759 6.93793 12.759 6.35893 13.406C5.77993 14.052 5.77993 15.1 6.35893 15.746L9.11693 18.828C9.26693 18.995 9.44193 19.117 9.62793 19.198C10.1629 19.469 10.8139 19.365 11.2529 18.876L17.5649 12.087C18.1299 11.455 18.1299 10.432 17.5639 9.80103Z" fill="white"/>
</svg>