<svg width="27" height="27" viewBox="0 0 27 27" fill="none" xmlns="http://www.w3.org/2000/svg">
<g clip-path="url(#clip0)">
<path d="M13.792 6.164C15.4941 6.164 16.874 4.78414 16.874 3.082C16.874 1.37986 15.4941 0 13.792 0C12.0898 0 10.71 1.37986 10.71 3.082C10.71 4.78414 12.0898 6.164 13.792 6.164Z" fill="#fdda54"/>
<path d="M13.792 26.3499C14.8132 26.3499 15.641 25.522 15.641 24.5009C15.641 23.4797 14.8132 22.6519 13.792 22.6519C12.7708 22.6519 11.943 23.4797 11.943 24.5009C11.943 25.522 12.7708 26.3499 13.792 26.3499Z" fill="#fdda54"/>
<path d="M6.21901 8.99185C7.75105 8.99185 8.99301 7.74989 8.99301 6.21785C8.99301 4.68581 7.75105 3.44385 6.21901 3.44385C4.68697 3.44385 3.44501 4.68581 3.44501 6.21785C3.44501 7.74989 4.68697 8.99185 6.21901 8.99185Z" fill="#fdda54"/>
<path d="M21.365 22.9038C22.2161 22.9038 22.906 22.2138 22.906 21.3628C22.906 20.5117 22.2161 19.8218 21.365 19.8218C20.5139 19.8218 19.824 20.5117 19.824 21.3628C19.824 22.2138 20.5139 22.9038 21.365 22.9038Z" fill="#fdda54"/>
<path d="M3.082 16.2571C4.44339 16.2571 5.547 15.1535 5.547 13.7921C5.547 12.4308 4.44339 11.3271 3.082 11.3271C1.72062 11.3271 0.617004 12.4308 0.617004 13.7921C0.617004 15.1535 1.72062 16.2571 3.082 16.2571Z" fill="#fdda54"/>
<path d="M24.501 15.0231C25.1814 15.0231 25.733 14.4715 25.733 13.7911C25.733 13.1107 25.1814 12.5591 24.501 12.5591C23.8206 12.5591 23.269 13.1107 23.269 13.7911C23.269 14.4715 23.8206 15.0231 24.501 15.0231Z" fill="#fdda54"/>
<path d="M4.69402 19.8401C3.85102 20.6831 3.85102 22.0471 4.69402 22.8901C5.53602 23.7331 6.90202 23.7331 7.74402 22.8901C8.58702 22.0471 8.58702 20.6831 7.74402 19.8401C6.90202 18.9961 5.53702 18.9881 4.69402 19.8401Z" fill="#fdda54"/>
<path d="M21.364 7.14195C21.8743 7.14195 22.288 6.72826 22.288 6.21795C22.288 5.70763 21.8743 5.29395 21.364 5.29395C20.8537 5.29395 20.44 5.70763 20.44 6.21795C20.44 6.72826 20.8537 7.14195 21.364 7.14195Z" fill="#fdda54"/>
</g>
<defs>
<clipPath id="clip0">
<rect width="26.349" height="26.35" fill="white"/>
</clipPath>
</defs>
</svg>